#!OML:ASF F:\VICON\USERDATA\INSTALL\rory3\rory3.ASF
:FULLY-SPECIFIED
:DEGREES
2782
root -1.6239 17.898 0.766353 9.43016 -16.5449 8.75228
lowerback 7.46351 -4.44752 -0.778051
upperback 4.27067 -5.98673 7.22314
thorax 1.15588 -3.16121 8.37562
lowerneck -29.3261 6.66658 -4.1034
upperneck 12.9179 11.3423 -3.78843
head 8.72698 4.63697 1.05717
rclavicle -3.81667e-014 6.36111e-014
rhumerus -17.6498 6.59329 -55.9508
rradius 66.6598
rwrist 40.2529
rhand -35.0964 -2.10811
rfingers 7.12502
rthumb -8.2378 -31.9275
lclavicle -3.81667e-014 6.36111e-014
lhumerus 76.2583 -56.8156 38.4357
lradius 41.2221
lwrist -28.4284
lhand -28.1794 41.8985
lfingers 7.12502
lthumb -1.55919 -288.127
rfemur -30.6802 10.6366 4.43802
rtibia 35.3237
rfoot -11.7168 4.90521
rtoes 4.25782
lfemur -12.2553 11.5876 -22.1695
ltibia 20.1142
lfoot -3.45221 22.5302
ltoes -26.8243
2783
root -1.62441 17.8934 0.761908 9.4476 -15.8664 8.53867
lowerback 7.48183 -4.34574 -0.686584
upperback 4.25823 -5.84092 7.17748
thorax 1.09498 -3.0815 8.26963
lowerneck -29.4401 6.58754 -4.07187
upperneck 12.6862 11.1989 -3.73957
head 8.66163 4.58642 1.04405
rclavicle 9.54166e-014 -6.20208e-014
rhumerus -18.1952 6.92133 -56.3628
rradius 66.8961
rwrist 40.2179
rhand -35.3813 -2.24901
rfingers 7.12502
rthumb -8.51277 -32.0574
lclavicle 9.54166e-014 -6.20208e-014
lhumerus 76.2583 -56.8156 38.4357
lradius 41.2221
lwrist -28.4284
lhand -28.1794 41.8985
lfingers 7.12502
lthumb -1.55919 -288.127
rfemur -30.4163 10.3842 4.75271
rtibia 35.3293
rfoot -11.9066 4.63264
rtoes 4.16686
lfemur -12.2741 11.3156 -21.9128
ltibia 20.0641
lfoot -3.43025 22.4432
ltoes -26.8592
2784
root -1.62409 17.8913 0.759238 9.44298 -15.3035 8.37082
lowerback 7.5921 -4.24301 -0.748989
upperback 4.19386 -5.69818 7.16859
thorax 0.95031 -3.00528 8.30259
lowerneck -29.3272 6.56184 -4.04797
upperneck 12.1882 11.1113 -3.76231
head 8.47283 4.57111 1.00254
rclavicle 6.67916e-014 -5.08889e-014
rhumerus -18.7368 7.47803 -56.7546
rradius 67.1063
rwrist 40.3459
rhand -36.0118 -2.55101
rfingers 7.12502
rthumb -9.12114 -32.3338
lclavicle 6.67916e-014 -5.08889e-014
lhumerus 76.2583 -56.8156 38.4357
lradius 41.2221
lwrist -28.4284
lhand -28.1794 41.8985
lfingers 7.12502
lthumb -1.55919 -288.127
rfemur -30.182 10.1644 4.99764
rtibia 35.3519
rfoot -12.0263 4.43441
rtoes 4.08809
lfemur -12.2309 11.1522 -21.7174
ltibia 19.9971
lfoot -3.97888 22.4413
ltoes -25.4596
2785
root -1.62225 17.8897 0.757074 9.48876 -14.7062 8.19544
lowerback 7.72251 -4.16621 -0.755558
upperback 4.01707 -5.57842 7.16285
thorax 0.67461 -2.93338 8.31459
lowerneck -29.1539 6.56291 -4.03366
upperneck 11.822 11.075 -3.79998
head 8.32208 4.57224 0.967348
rclavicle 1.59028e-015 -3.49861e-014
rhumerus -19.3797 8.23926 -57.1348
rradius 67.2542
rwrist 40.2321
rhand -36.9859 -1.49443
rfingers 7.12502
rthumb -10.061 -31.2339
lclavicle 1.59028e-015 -3.49861e-014
lhumerus 76.2583 -56.8156 38.4357
lradius 41.2221
lwrist -28.4284
lhand -28.1794 41.8985
lfingers 7.12502
lthumb -1.55919 -288.127
rfemur -29.9827 9.84934 5.2526
rtibia 35.3869
rfoot -12.1328 4.28867
rtoes 4.36773
lfemur -12.2571 11.0458 -21.5529
ltibia 19.9439
lfoot -4.73428 22.4988
ltoes -23.3389
2786
root -1.61877 17.8856 0.751439 9.50377 -14.0379 8.11714
lowerback 7.72767 -4.11544 -0.772988
upperback 3.94139 -5.50443 7.07221
thorax 0.572663 -2.88913 8.22629
lowerneck -29.1544 6.59228 -3.98712
upperneck 11.5659 11.0664 -3.75666
head 8.232 4.58828 0.966506
rclavicle -3.18055e-015 -9.06458e-014
rhumerus -19.9103 8.94965 -57.603
rradius 67.4268
rwrist 39.7466
rhand -37.8246 -0.0681387
rfingers 7.12502
rthumb -10.8701 -29.7668
lclavicle -3.18055e-015 -9.06458e-014
lhumerus 76.2583 -56.8156 38.4357
lradius 41.2221
lwrist -28.4284
lhand -28.1794 41.8985
lfingers 7.12502
lthumb -1.55919 -288.127
rfemur -29.7895 9.56203 5.38523
rtibia 35.4331
rfoot -12.3681 4.04442
rtoes 4.43922
lfemur -12.3047 10.7645 -21.4723
ltibia 19.8895
lfoot -5.24219 22.5269
ltoes -21.9283
2787
root -1.61632 17.8792 0.746581 9.47872 -13.4062 7.97828
lowerback 7.71864 -4.02143 -0.762881
upperback 3.96117 -5.37767 6.9772
thorax 0.567857 -2.82238 8.109
lowerneck -29.1554 6.54259 -4.10397
upperneck 11.1254 10.9656 -3.54223
head 8.05795 4.58223 1.02752
rclavicle -3.18055e-014 -4.13472e-014
rhumerus -20.3093 9.4951 -58.0898
rradius 67.6977
rwrist 39.5575
rhand -38.2134 0.141264
rfingers 7.12502
rthumb -11.2451 -29.5373
lclavicle -3.18055e-014 -4.13472e-014
lhumerus 76.2583 -56.8156 38.4357
lradius 41.2221
lwrist -28.4284
lhand -28.1794 41.8985
lfingers 7.12502
lthumb -1.55919 -288.127
rfemur -29.559 9.27737 5.60711
rtibia 35.4986
rfoot -12.5698 3.81198
rtoes 4.18967
lfemur -12.2812 10.5163 -21.3
ltibia 19.79
lfoot -5.23538 22.3972
ltoes -22.0504
2788
root -1.61419 17.8726 0.744428 9.45485 -12.7303 7.81215
lowerback 7.741 -3.92754 -0.751711
upperback 3.95055 -5.24822 6.91072
thorax 0.516993 -2.75319 8.02606
lowerneck -29.2136 6.47684 -4.15011
upperneck 10.7131 10.8513 -3.47319
head 7.91737 4.55244 1.0307
rclavicle -3.18055e-014 -3.49861e-014
rhumerus -20.6816 10.1239 -58.4922
rradius 67.9036
rwrist 39.6621
rhand -38.2854 -0.105831
rfingers 7.12502
rthumb -11.3145 -29.7806
lclavicle -3.18055e-014 -3.49861e-014
lhumerus 76.2583 -56.8156 38.4357
lradius 41.2221
lwrist -28.4284
lhand -28.1794 41.8985
lfingers 7.12502
lthumb -1.55919 -288.127
rfemur -29.2975 8.87862 5.89668
rtibia 35.5639
rfoot -12.7264 3.64257
rtoes 3.98623
lfemur -12.202 10.2681 -21.0876
ltibia 19.6196
lfoot -4.7971 22.1276
ltoes -23.5374
2789
root -1.61055 17.8644 0.744199 9.4136 -12.0959 7.69442
lowerback 7.78747 -3.83536 -0.799141
upperback 3.89737 -5.12204 6.83594
thorax 0.413744 -2.68457 7.97172
lowerneck -29.1895 6.45534 -4.05545
upperneck 10.3529 10.7769 -3.5783
head 7.80207 4.52635 0.960981
rclavicle 5.96354e-014 -6.52014e-014
rhumerus -21.0923 11.0723 -58.8313
rradius 68.1733
rwrist 39.5552
rhand -37.9687 -0.538442
rfingers 7.12502
rthumb -11.009 -30.2298
lclavicle 5.96354e-014 -6.52014e-014
lhumerus 76.2583 -56.8156 38.4357
lradius 41.2221
lwrist -28.4284
lhand -28.1794 41.8985
lfingers 7.12502
lthumb -1.55919 -288.127
rfemur -29.0264 8.44593 6.11801
rtibia 35.5861
rfoot -12.8136 3.57492
rtoes 4.01417
lfemur -12.0876 9.99504 -20.9506
ltibia 19.4586
lfoot -4.15787 21.8419
ltoes -25.9162
2790
root -1.60502 17.8601 0.744893 9.3705 -11.4918 7.49179
lowerback 7.89355 -3.72982 -0.786777
upperback 3.81846 -4.97077 6.77429
thorax 0.243234 -2.60045 7.90165
lowerneck -28.8758 6.45013 -3.98212
upperneck 9.75141 10.6995 -3.68204
head 7.56011 4.51544 0.880227
rclavicle 8.34896e-014 -3.02153e-014
rhumerus -21.6839 11.951 -59.3302
rradius 68.5433
rwrist 39.7634
rhand -38.0135 -1.26948
rfingers 7.12502
rthumb -11.0523 -30.9585
lclavicle 8.34896e-014 -3.02153e-014
lhumerus 76.2583 -56.8156 38.4357
lradius 41.2221
lwrist -28.4284
lhand -28.1794 41.8985
lfingers 7.12502
lthumb -1.55919 -288.127
rfemur -28.7562 8.08008 6.42333
rtibia 35.6106
rfoot -12.9576 3.42175
rtoes 3.77874
lfemur -11.9393 9.69434 -20.7156
ltibia 19.2205
lfoot -3.96855 21.6984
ltoes -26.8627
2791
root -1.59963 17.8602 0.746623 9.37447 -10.8178 7.13163
lowerback 7.873 -3.66466 -0.659005
upperback 3.83662 -4.87508 6.77895
thorax 0.248913 -2.54996 7.82514
lowerneck -28.9399 6.47486 -3.88562
upperneck 9.33163 10.6891 -3.808
head 7.43935 4.51802 0.81398
rclavicle 2.06736e-014 2.38542e-014
rhumerus -21.9743 12.6207 -59.8675
rradius 68.8094
rwrist 40.0734
rhand -38.1855 -1.35704
rfingers 7.12502
rthumb -11.2182 -31.0371
lclavicle 2.06736e-014 2.38542e-014
lhumerus 76.2583 -56.8156 38.4357
lradius 41.2221
lwrist -28.4284
lhand -28.1794 41.8985
lfingers 7.12502
lthumb -1.55919 -288.127
rfemur -28.488 7.81373 6.89017
rtibia 35.6386
rfoot -13.1604 3.1148
rtoes 3.31811
lfemur -11.773 9.30202 -20.2819
ltibia 18.9195
lfoot -4.15232 21.6452
ltoes -26.3152
2792
root -1.59326 17.8572 0.748173 9.39226 -10.1989 7.1488
lowerback 7.67555 -3.60172 -0.919744
upperback 3.94082 -4.82047 6.67391
thorax 0.471572 -2.53197 7.83774
lowerneck -29.2088 6.55203 -3.77
upperneck 8.87802 10.7463 -3.92881
head 7.33731 4.55111 0.760757
rclavicle 6.20208e-014 6.36111e-015
rhumerus -21.9902 13.4007 -60.316
rradius 69.0745
rwrist 40.0746
rhand -38.176 -1.13333
rfingers 7.12502
rthumb -11.209 -30.8139
lclavicle 6.20208e-014 6.36111e-015
lhumerus 76.2583 -56.8156 38.4357
lradius 41.2221
lwrist -28.4284
lhand -28.1794 41.8985
lfingers 7.12502
lthumb -1.55919 -288.127
rfemur -28.3179 7.50976 6.89832
rtibia 35.6882
rfoot -13.3789 2.86548
rtoes 2.75619
lfemur -11.6632 8.82073 -20.29
ltibia 18.6164
lfoot -4.36916 21.6597
ltoes -25.5545
2793
root -1.58676 17.8549 0.749767 9.45712 -9.54767 7.03495
lowerback 7.5207 -3.51275 -1.03506
upperback 3.96479 -4.71408 6.60528
thorax 0.57004 -2.48135 7.8108
lowerneck -29.5677 6.61299 -3.61948
upperneck 8.64014 10.7827 -4.01534
head 7.32119 4.5674 0.718905
rclavicle -7.4743e-014 7.15625e-014
rhumerus -22.2513 14.2155 -60.7277
rradius 69.4652
rwrist 39.9371
rhand -38.1663 -0.898575
rfingers 7.12502
rthumb -11.1996 -30.5796
lclavicle -7.4743e-014 7.15625e-014
lhumerus 76.2583 -56.8156 38.4357
lradius 41.2221
lwrist -28.4284
lhand -28.1794 41.8985
lfingers 7.12502
lthumb -1.55919 -288.127
rfemur -28.1548 7.21402 7.05071
rtibia 35.7348
rfoot -13.6324 2.63682
rtoes 2.65613
lfemur -11.6479 8.41271 -20.1618
ltibia 18.3437
lfoot -4.27407 21.6273
ltoes -25.8131
2794
root -1.58088 17.8489 0.749849 9.45755 -8.90148 6.86242
lowerback 7.53292 -3.36682 -1.0861
upperback 3.90617 -4.51776 6.51909
thorax 0.469766 -2.37732 7.73964
lowerneck -29.7729 6.62049 -3.40854
upperneck 8.37112 10.7134 -4.08905
head 7.27422 4.54128 0.652699
rclavicle -8.74653e-015 1.90833e-014
rhumerus -22.6441 14.8919 -61.2284
rradius 69.7264
rwrist 39.8873
rhand -38.24 -0.755997
rfingers 7.12502
rthumb -11.2707 -30.4332
lclavicle -8.74653e-015 1.90833e-014
lhumerus 76.2583 -56.8156 38.4357
lradius 41.2221
lwrist -28.4284
lhand -28.1794 41.8985
lfingers 7.12502
lthumb -1.55919 -288.127
rfemur -27.9489 6.97905 7.28025
rtibia 35.8028
rfoot -13.8104 2.40833
rtoes 3.16674
lfemur -11.5464 7.99534 -19.9387
ltibia 18.0611
lfoot -4.21426 21.5901
ltoes -25.6912
